<svg xmlns="http://www.w3.org/2000/svg" width="10" height="10" fill="none"><g fill-rule="evenodd" clip-rule="evenodd"><path fill="#4285F4" d="M9.894 5.114c0-.355-.032-.696-.091-1.023h-4.71v1.934h2.692a2.3 2.3 0 0 1-.998 1.51v1.254h1.616c.945-.87 1.49-2.153 1.49-3.675Z"/><path fill="#34A853" d="M5.093 10c1.35 0 2.482-.448 3.31-1.211L6.787 7.534c-.448.3-1.02.477-1.694.477-1.302 0-2.404-.88-2.797-2.061H.626v1.295A4.998 4.998 0 0 0 5.092 10Z"/><path fill="#FBBC05" d="M2.296 5.95c-.1-.3-.157-.62-.157-.95 0-.33.057-.65.157-.95V2.755H.626a4.998 4.998 0 0 0 0 4.49l1.67-1.295Z"/><path fill="#EA4335" d="M5.093 1.989c.735 0 1.394.252 1.912.747l1.434-1.434C7.573.495 6.441 0 5.093 0A4.998 4.998 0 0 0 .625 2.755l1.67 1.295c.394-1.182 1.496-2.061 2.798-2.061Z"/></g></svg>