<svg width="194" height="58" viewBox="0 0 194 58" fill="none" xmlns="http://www.w3.org/2000/svg">
<rect width="194" height="58" rx="29" fill="url(#paint0_radial_3852_4538)"/>
<path d="M51.89 35V22.4H53.69V35H51.89ZM62.3043 25.37C63.0843 25.37 63.7683 25.52 64.3563 25.82C64.9563 26.12 65.4243 26.576 65.7603 27.188C66.0963 27.8 66.2643 28.574 66.2643 29.51V35H64.5363V29.708C64.5363 28.784 64.3083 28.088 63.8523 27.62C63.4083 27.152 62.7783 26.918 61.9623 26.918C61.3503 26.918 60.8163 27.038 60.3603 27.278C59.9043 27.518 59.5503 27.872 59.2983 28.34C59.0583 28.808 58.9383 29.39 58.9383 30.086V35H57.2103V25.46H58.8663V28.034L58.5963 27.35C58.9083 26.726 59.3883 26.24 60.0363 25.892C60.6843 25.544 61.4403 25.37 62.3043 25.37ZM72.1982 35.108C71.4062 35.108 70.6502 35 69.9302 34.784C69.2222 34.568 68.6642 34.304 68.2562 33.992L68.9762 32.624C69.3842 32.9 69.8882 33.134 70.4882 33.326C71.0882 33.518 71.7002 33.614 72.3242 33.614C73.1282 33.614 73.7042 33.5 74.0522 33.272C74.4122 33.044 74.5922 32.726 74.5922 32.318C74.5922 32.018 74.4842 31.784 74.2682 31.616C74.0522 31.448 73.7642 31.322 73.4042 31.238C73.0562 31.154 72.6662 31.082 72.2342 31.022C71.8022 30.95 71.3702 30.866 70.9382 30.77C70.5062 30.662 70.1102 30.518 69.7502 30.338C69.3902 30.146 69.1022 29.888 68.8862 29.564C68.6702 29.228 68.5622 28.784 68.5622 28.232C68.5622 27.656 68.7242 27.152 69.0482 26.72C69.3722 26.288 69.8282 25.958 70.4162 25.73C71.0162 25.49 71.7242 25.37 72.5402 25.37C73.1642 25.37 73.7942 25.448 74.4302 25.604C75.0782 25.748 75.6062 25.958 76.0142 26.234L75.2762 27.602C74.8442 27.314 74.3942 27.116 73.9262 27.008C73.4582 26.9 72.9902 26.846 72.5222 26.846C71.7662 26.846 71.2022 26.972 70.8302 27.224C70.4582 27.464 70.2722 27.776 70.2722 28.16C70.2722 28.484 70.3802 28.736 70.5962 28.916C70.8242 29.084 71.1122 29.216 71.4602 29.312C71.8202 29.408 72.2162 29.492 72.6482 29.564C73.0802 29.624 73.5122 29.708 73.9442 29.816C74.3762 29.912 74.7662 30.05 75.1142 30.23C75.4742 30.41 75.7622 30.662 75.9782 30.986C76.2062 31.31 76.3202 31.742 76.3202 32.282C76.3202 32.858 76.1522 33.356 75.8162 33.776C75.4802 34.196 75.0062 34.526 74.3942 34.766C73.7822 34.994 73.0502 35.108 72.1982 35.108ZM81.7558 35.108C80.7958 35.108 80.0518 34.85 79.5238 34.334C78.9958 33.818 78.7318 33.08 78.7318 32.12V23.372H80.4598V32.048C80.4598 32.564 80.5858 32.96 80.8378 33.236C81.1018 33.512 81.4738 33.65 81.9538 33.65C82.4938 33.65 82.9438 33.5 83.3038 33.2L83.8438 34.442C83.5798 34.67 83.2618 34.838 82.8898 34.946C82.5298 35.054 82.1518 35.108 81.7558 35.108ZM77.1118 26.882V25.46H83.1958V26.882H77.1118ZM91.8549 35V32.984L91.7649 32.606V29.168C91.7649 28.436 91.5489 27.872 91.1169 27.476C90.6969 27.068 90.0609 26.864 89.2089 26.864C88.6449 26.864 88.0929 26.96 87.5529 27.152C87.0129 27.332 86.5569 27.578 86.1849 27.89L85.4649 26.594C85.9569 26.198 86.5449 25.898 87.2289 25.694C87.9249 25.478 88.6509 25.37 89.4069 25.37C90.7149 25.37 91.7229 25.688 92.4309 26.324C93.1389 26.96 93.4929 27.932 93.4929 29.24V35H91.8549ZM88.7229 35.108C88.0149 35.108 87.3909 34.988 86.8509 34.748C86.3229 34.508 85.9149 34.178 85.6269 33.758C85.3389 33.326 85.1949 32.84 85.1949 32.3C85.1949 31.784 85.3149 31.316 85.5549 30.896C85.8069 30.476 86.2089 30.14 86.7609 29.888C87.3249 29.636 88.0809 29.51 89.0289 29.51H92.0529V30.752H89.1009C88.2369 30.752 87.6549 30.896 87.3549 31.184C87.0549 31.472 86.9049 31.82 86.9049 32.228C86.9049 32.696 87.0909 33.074 87.4629 33.362C87.8349 33.638 88.3509 33.776 89.0109 33.776C89.6589 33.776 90.2229 33.632 90.7029 33.344C91.1949 33.056 91.5489 32.636 91.7649 32.084L92.1069 33.272C91.8789 33.836 91.4769 34.286 90.9009 34.622C90.3249 34.946 89.5989 35.108 88.7229 35.108ZM100.867 38.6C99.9907 38.6 99.1387 38.474 98.3107 38.222C97.4947 37.982 96.8287 37.634 96.3127 37.178L97.1407 35.846C97.5847 36.23 98.1307 36.53 98.7787 36.746C99.4267 36.974 100.105 37.088 100.813 37.088C101.941 37.088 102.769 36.824 103.297 36.296C103.825 35.768 104.089 34.964 104.089 33.884V31.868L104.269 29.978L104.179 28.07V25.46H105.817V33.704C105.817 35.384 105.397 36.62 104.557 37.412C103.717 38.204 102.487 38.6 100.867 38.6ZM100.651 34.604C99.7267 34.604 98.8987 34.412 98.1667 34.028C97.4467 33.632 96.8707 33.086 96.4387 32.39C96.0187 31.694 95.8087 30.89 95.8087 29.978C95.8087 29.054 96.0187 28.25 96.4387 27.566C96.8707 26.87 97.4467 26.33 98.1667 25.946C98.8987 25.562 99.7267 25.37 100.651 25.37C101.467 25.37 102.211 25.538 102.883 25.874C103.555 26.198 104.089 26.702 104.485 27.386C104.893 28.07 105.097 28.934 105.097 29.978C105.097 31.01 104.893 31.868 104.485 32.552C104.089 33.236 103.555 33.752 102.883 34.1C102.211 34.436 101.467 34.604 100.651 34.604ZM100.849 33.092C101.485 33.092 102.049 32.96 102.541 32.696C103.033 32.432 103.417 32.066 103.693 31.598C103.981 31.13 104.125 30.59 104.125 29.978C104.125 29.366 103.981 28.826 103.693 28.358C103.417 27.89 103.033 27.53 102.541 27.278C102.049 27.014 101.485 26.882 100.849 26.882C100.213 26.882 99.6427 27.014 99.1387 27.278C98.6467 27.53 98.2567 27.89 97.9687 28.358C97.6927 28.826 97.5547 29.366 97.5547 29.978C97.5547 30.59 97.6927 31.13 97.9687 31.598C98.2567 32.066 98.6467 32.432 99.1387 32.696C99.6427 32.96 100.213 33.092 100.849 33.092ZM109.118 35V25.46H110.774V28.052L110.612 27.404C110.876 26.744 111.32 26.24 111.944 25.892C112.568 25.544 113.336 25.37 114.248 25.37V27.044C114.176 27.032 114.104 27.026 114.032 27.026C113.972 27.026 113.912 27.026 113.852 27.026C112.928 27.026 112.196 27.302 111.656 27.854C111.116 28.406 110.846 29.204 110.846 30.248V35H109.118ZM121.597 35V32.984L121.507 32.606V29.168C121.507 28.436 121.291 27.872 120.859 27.476C120.439 27.068 119.803 26.864 118.951 26.864C118.387 26.864 117.835 26.96 117.295 27.152C116.755 27.332 116.299 27.578 115.927 27.89L115.207 26.594C115.699 26.198 116.287 25.898 116.971 25.694C117.667 25.478 118.393 25.37 119.149 25.37C120.457 25.37 121.465 25.688 122.173 26.324C122.881 26.96 123.235 27.932 123.235 29.24V35H121.597ZM118.465 35.108C117.757 35.108 117.133 34.988 116.593 34.748C116.065 34.508 115.657 34.178 115.369 33.758C115.081 33.326 114.937 32.84 114.937 32.3C114.937 31.784 115.057 31.316 115.297 30.896C115.549 30.476 115.951 30.14 116.503 29.888C117.067 29.636 117.823 29.51 118.771 29.51H121.795V30.752H118.843C117.979 30.752 117.397 30.896 117.097 31.184C116.797 31.472 116.647 31.82 116.647 32.228C116.647 32.696 116.833 33.074 117.205 33.362C117.577 33.638 118.093 33.776 118.753 33.776C119.401 33.776 119.965 33.632 120.445 33.344C120.937 33.056 121.291 32.636 121.507 32.084L121.849 33.272C121.621 33.836 121.219 34.286 120.643 34.622C120.067 34.946 119.341 35.108 118.465 35.108ZM138.367 25.37C139.135 25.37 139.813 25.52 140.401 25.82C140.989 26.12 141.445 26.576 141.769 27.188C142.105 27.8 142.273 28.574 142.273 29.51V35H140.545V29.708C140.545 28.784 140.329 28.088 139.897 27.62C139.465 27.152 138.859 26.918 138.079 26.918C137.503 26.918 136.999 27.038 136.567 27.278C136.135 27.518 135.799 27.872 135.559 28.34C135.331 28.808 135.217 29.39 135.217 30.086V35H133.489V29.708C133.489 28.784 133.273 28.088 132.841 27.62C132.421 27.152 131.815 26.918 131.023 26.918C130.459 26.918 129.961 27.038 129.529 27.278C129.097 27.518 128.761 27.872 128.521 28.34C128.281 28.808 128.161 29.39 128.161 30.086V35H126.433V25.46H128.089V27.998L127.819 27.35C128.119 26.726 128.581 26.24 129.205 25.892C129.829 25.544 130.555 25.37 131.383 25.37C132.295 25.37 133.081 25.598 133.741 26.054C134.401 26.498 134.833 27.176 135.037 28.088L134.335 27.8C134.623 27.068 135.127 26.48 135.847 26.036C136.567 25.592 137.407 25.37 138.367 25.37Z" fill="white"/>
<defs>
<radialGradient id="paint0_radial_3852_4538" cx="0" cy="0" r="1" gradientUnits="userSpaceOnUse" gradientTransform="translate(197.903 1.17813) scale(448.004 133.939)">
<stop stop-color="#F9ED32"/>
<stop offset="0.36" stop-color="#EE2A7B"/>
<stop offset="0.44" stop-color="#D22A8A"/>
<stop offset="0.6" stop-color="#8B2AB2"/>
<stop offset="0.83" stop-color="#1B2AF0"/>
<stop offset="0.88" stop-color="#002AFF"/>
</radialGradient>
</defs>
</svg>
