<svg xmlns="http://www.w3.org/2000/svg" width="194" height="58" fill="none"><rect width="192.5" height="56.5" x=".75" y=".75" fill="#fff" rx="28.25"/><rect width="192.5" height="56.5" x=".75" y=".75" stroke="url(#a)" stroke-width="1.5" rx="28.25"/><path fill="url(#b)" d="M51.89 35V22.4h1.8V35h-1.8Zm10.414-9.63c.78 0 1.464.15 2.052.45.6.3 1.068.756 1.404 1.368.336.612.504 1.386.504 2.322V35h-1.728v-5.292c0-.924-.228-1.62-.684-2.088-.444-.468-1.074-.702-1.89-.702-.612 0-1.146.12-1.602.36-.456.24-.81.594-1.062 1.062-.24.468-.36 1.05-.36 1.746V35H57.21v-9.54h1.656v2.574l-.27-.684a3.313 3.313 0 0 1 1.44-1.458c.648-.348 1.404-.522 2.268-.522Zm9.894 9.738a7.85 7.85 0 0 1-2.268-.324c-.708-.216-1.266-.48-1.674-.792l.72-1.368c.408.276.912.51 1.512.702a5.99 5.99 0 0 0 1.836.288c.804 0 1.38-.114 1.728-.342.36-.228.54-.546.54-.954 0-.3-.108-.534-.324-.702-.216-.168-.504-.294-.864-.378a12.123 12.123 0 0 0-1.17-.216 24.668 24.668 0 0 1-1.296-.252 5.786 5.786 0 0 1-1.188-.432 2.343 2.343 0 0 1-.864-.774c-.216-.336-.324-.78-.324-1.332 0-.576.162-1.08.486-1.512.324-.432.78-.762 1.368-.99.6-.24 1.308-.36 2.124-.36.624 0 1.254.078 1.89.234.648.144 1.176.354 1.584.63l-.738 1.368a4.077 4.077 0 0 0-1.35-.594 6.226 6.226 0 0 0-1.404-.162c-.756 0-1.32.126-1.692.378-.372.24-.558.552-.558.936 0 .324.108.576.324.756.228.168.516.3.864.396.36.096.756.18 1.188.252.432.06.864.144 1.296.252.432.096.822.234 1.17.414.36.18.648.432.864.756.228.324.342.756.342 1.296 0 .576-.168 1.074-.504 1.494-.336.42-.81.75-1.422.99-.612.228-1.344.342-2.196.342Zm9.558 0c-.96 0-1.704-.258-2.232-.774-.528-.516-.792-1.254-.792-2.214v-8.748h1.728v8.676c0 .516.126.912.378 1.188.264.276.636.414 1.116.414.54 0 .99-.15 1.35-.45l.54 1.242a2.506 2.506 0 0 1-.954.504c-.36.108-.738.162-1.134.162Zm-4.644-8.226V25.46h6.084v1.422h-6.084ZM91.855 35v-2.016l-.09-.378v-3.438c0-.732-.216-1.296-.648-1.692-.42-.408-1.056-.612-1.908-.612-.564 0-1.116.096-1.656.288a4.14 4.14 0 0 0-1.368.738l-.72-1.296a5.105 5.105 0 0 1 1.764-.9 7.306 7.306 0 0 1 2.178-.324c1.308 0 2.316.318 3.024.954.708.636 1.062 1.608 1.062 2.916V35h-1.638Zm-3.132.108c-.708 0-1.332-.12-1.872-.36-.528-.24-.936-.57-1.224-.99a2.57 2.57 0 0 1-.432-1.458c0-.516.12-.984.36-1.404.252-.42.654-.756 1.206-1.008.564-.252 1.32-.378 2.268-.378h3.024v1.242H89.1c-.864 0-1.446.144-1.746.432-.3.288-.45.636-.45 1.044 0 .468.186.846.558 1.134.372.276.888.414 1.548.414.648 0 1.212-.144 1.692-.432a2.446 2.446 0 0 0 1.062-1.26l.342 1.188c-.228.564-.63 1.014-1.206 1.35-.576.324-1.302.486-2.178.486Zm12.144 3.492a8.73 8.73 0 0 1-2.556-.378c-.816-.24-1.482-.588-1.998-1.044l.828-1.332c.444.384.99.684 1.638.9a6.085 6.085 0 0 0 2.034.342c1.128 0 1.956-.264 2.484-.792s.792-1.332.792-2.412v-2.016l.18-1.89-.09-1.908v-2.61h1.638v8.244c0 1.68-.42 2.916-1.26 3.708-.84.792-2.07 1.188-3.69 1.188Zm-.216-3.996c-.924 0-1.752-.192-2.484-.576a4.622 4.622 0 0 1-1.728-1.638c-.42-.696-.63-1.5-.63-2.412 0-.924.21-1.728.63-2.412a4.484 4.484 0 0 1 1.728-1.62c.732-.384 1.56-.576 2.484-.576.816 0 1.56.168 2.232.504.672.324 1.206.828 1.602 1.512.408.684.612 1.548.612 2.592 0 1.032-.204 1.89-.612 2.574-.396.684-.93 1.2-1.602 1.548-.672.336-1.416.504-2.232.504Zm.198-1.512c.636 0 1.2-.132 1.692-.396a2.9 2.9 0 0 0 1.152-1.098c.288-.468.432-1.008.432-1.62 0-.612-.144-1.152-.432-1.62a2.78 2.78 0 0 0-1.152-1.08c-.492-.264-1.056-.396-1.692-.396-.636 0-1.206.132-1.71.396a2.9 2.9 0 0 0-1.17 1.08c-.276.468-.414 1.008-.414 1.62 0 .612.138 1.152.414 1.62a3.03 3.03 0 0 0 1.17 1.098c.504.264 1.074.396 1.71.396ZM109.118 35v-9.54h1.656v2.592l-.162-.648a2.93 2.93 0 0 1 1.332-1.512c.624-.348 1.392-.522 2.304-.522v1.674a1.312 1.312 0 0 0-.216-.018h-.18c-.924 0-1.656.276-2.196.828-.54.552-.81 1.35-.81 2.394V35h-1.728Zm12.479 0v-2.016l-.09-.378v-3.438c0-.732-.216-1.296-.648-1.692-.42-.408-1.056-.612-1.908-.612-.564 0-1.116.096-1.656.288a4.14 4.14 0 0 0-1.368.738l-.72-1.296a5.105 5.105 0 0 1 1.764-.9 7.306 7.306 0 0 1 2.178-.324c1.308 0 2.316.318 3.024.954.708.636 1.062 1.608 1.062 2.916V35h-1.638Zm-3.132.108c-.708 0-1.332-.12-1.872-.36-.528-.24-.936-.57-1.224-.99a2.57 2.57 0 0 1-.432-1.458c0-.516.12-.984.36-1.404.252-.42.654-.756 1.206-1.008.564-.252 1.32-.378 2.268-.378h3.024v1.242h-2.952c-.864 0-1.446.144-1.746.432-.3.288-.45.636-.45 1.044 0 .468.186.846.558 1.134.372.276.888.414 1.548.414.648 0 1.212-.144 1.692-.432a2.446 2.446 0 0 0 1.062-1.26l.342 1.188c-.228.564-.63 1.014-1.206 1.35-.576.324-1.302.486-2.178.486Zm19.902-9.738c.768 0 1.446.15 2.034.45.588.3 1.044.756 1.368 1.368.336.612.504 1.386.504 2.322V35h-1.728v-5.292c0-.924-.216-1.62-.648-2.088-.432-.468-1.038-.702-1.818-.702-.576 0-1.08.12-1.512.36-.432.24-.768.594-1.008 1.062-.228.468-.342 1.05-.342 1.746V35h-1.728v-5.292c0-.924-.216-1.62-.648-2.088-.42-.468-1.026-.702-1.818-.702-.564 0-1.062.12-1.494.36-.432.24-.768.594-1.008 1.062-.24.468-.36 1.05-.36 1.746V35h-1.728v-9.54h1.656v2.538l-.27-.648c.3-.624.762-1.11 1.386-1.458.624-.348 1.35-.522 2.178-.522.912 0 1.698.228 2.358.684.66.444 1.092 1.122 1.296 2.034l-.702-.288c.288-.732.792-1.32 1.512-1.764.72-.444 1.56-.666 2.52-.666Z"/><defs><radialGradient id="a" cx="0" cy="0" r="1" gradientTransform="matrix(448.004 0 0 133.939 197.903 1.178)" gradientUnits="userSpaceOnUse"><stop stop-color="#F9ED32"/><stop offset=".36" stop-color="#EE2A7B"/><stop offset=".44" stop-color="#D22A8A"/><stop offset=".6" stop-color="#8B2AB2"/><stop offset=".83" stop-color="#1B2AF0"/><stop offset=".88" stop-color="#002AFF"/></radialGradient><radialGradient id="b" cx="0" cy="0" r="1" gradientTransform="matrix(217.074 0 0 50.8045 145.891 18.447)" gradientUnits="userSpaceOnUse"><stop stop-color="#F9ED32"/><stop offset=".36" stop-color="#EE2A7B"/><stop offset=".44" stop-color="#D22A8A"/><stop offset=".6" stop-color="#8B2AB2"/><stop offset=".83" stop-color="#1B2AF0"/><stop offset=".88" stop-color="#002AFF"/></radialGradient></defs></svg>